<?xml version="1.0" encoding="utf-8"?>
<!-- Generator: Adobe Illustrator 22.0.1, SVG Export Plug-In . SVG Version: 6.00 Build 0)  -->
<svg version="1.1" id="レイヤー_1" xmlns="http://www.w3.org/2000/svg" xmlns:xlink="http://www.w3.org/1999/xlink" x="0px"
	 y="0px" viewBox="0 0 1000 368.5" style="enable-background:new 0 0 1000 368.5;" xml:space="preserve">
<g>
	<g>
		<path d="M64.5,209.9c-8.8,0-10.8-5.6-15.6-19l-0.3-1c-4.7-13.3-17.6-33-38.4-58.6l-0.4-0.5c-7.2-8.8-9.7-13-9.7-19
			c0-6.9,3-14.3,19.7-35c23.3-29.2,31.6-41,31.6-48.9c0-4.1-1.7-7.1-5.5-12.3c0-0.1-0.1-0.1-0.1-0.2c-0.7-1.1-2-3.3-0.7-5.3
			c0.9-1.6,2.8-1.6,3.7-1.6c6.3,0,31.4,12.4,31.4,23.2c0,3.3-5.7,10-26.8,33.1c-14.5,15.9-36.5,40-36.5,44.7c0,2.9,1.1,5.8,6.4,11.4
			l1.1,1.2c22.3,24.2,52.7,57.5,52.7,74.4C77.1,205.7,70.6,209.9,64.5,209.9z"/>
	</g>
	<g>
		<path d="M184.5,252.6c-3.5,0-8.7,0-8.7-4.3c0-2.8,3.8-3.8,7.7-4.9c0.3-0.1,0.6-0.2,0.9-0.2h0.1c29.9-6.7,49.9-24.9,49.9-45.2
			c0-22.2-18.3-23.9-23.9-23.9c-11.5,0-21.2,5.6-28.8,16.7l-0.9,1.3c-10.4,14.6-13.5,19.1-22.5,19.1c-12,0-20.3-13.1-20.3-31.9
			c0-6.7,2.4-27.4,4.4-44c1-8.2,1.8-15.4,2-18.3v-0.1c0.7-8.6,1.9-21.7,23-30.2c13.2-5.4,17.4-7.4,17.4-12.5c0-3.7-1.2-5.8-3.6-9.3
			c-0.1-0.1-0.1-0.2-0.1-0.3c-0.6-1.3-1.9-3.9,0-5.8l0.1-0.1c0.5-0.4,1.2-0.7,2-0.7c3,0,11.1,3.9,17.7,8.5
			c6.6,4.6,14.5,11.7,14.5,19.5c0,5.7-4.5,13.7-14.4,13.7c-2.6,0-4-0.3-14.7-4.2c-4-1.5-7.4-2.2-10.3-2.2c-8.4,0-14.4,5.6-14.4,13.2
			c0,0.9,0.4,4.2,0.8,6.9c0.5,3.9,0.8,6.4,0.8,7.5c0,1.6-0.9,7.4-2.1,14.8c-0.3,2.2-0.6,4-0.8,5c-1.2,9.1-3.1,28.8-3.1,34.4
			c0,7.5,2,8.5,3.8,8.5c3.6,0,10-3.9,12.1-5.1l0.4-0.2c13.7-9,23.6-15.5,39.7-15.5c25.2,0,45.6,17.7,45.6,39.5
			C258.7,232.3,220.3,252.6,184.5,252.6z"/>
	</g>
	<g>
		<path d="M348.3,204c-33.5,0-47.8-20.2-47.8-67.6c0-14.7,0.5-19.4,5.5-66c0.8-6.6,3.1-26.8,3.1-33.6c0-4-0.7-7.7-1.9-10.7
			c0-0.1,0-0.1-0.1-0.2c-0.1-0.3-0.7-1.7-1.1-2.7c-1.6-3.8-1.6-3.9-1.6-4.5c0-3.1,2.9-4.7,5.7-4.7c13.8,0,25.1,20.3,25.1,27
			c0,1.8-1.3,5.3-3.2,10.1c-0.6,1.5-1.3,3.2-1.4,3.7c-3.4,12.4-9.9,64.4-9.9,83.6c0,25.7,5.7,42.8,33.8,42.8
			c10.5,0,27.5-2.1,48.6-12.1c1.4-0.7,5.2-2.7,9.3-4.9c13-6.9,13.3-6.9,14.2-6.9c2,0,3.5,1.5,3.5,3.5c0,3.4-11.9,14.9-24.1,23.3
			C392.9,193.3,372.3,204,348.3,204z"/>
	</g>
	<g>
		<path d="M499.3,202.7c-26.1,0-41.1-10.9-41.1-29.9c0-11.5,8.5-33.2,40.5-33.2c7.3,0,11.1,0.8,18.7,2.3l0.6,0.1
			c5.3,1.1,6.9,1.1,8.2,1.1c2.7,0,2.7-0.9,2.7-1.8c0-3.2-2.7-11.6-8.6-23.1l-0.5-0.9c-1-2-1.8-3.6-2.3-4.1h-0.1
			c-0.8,0.1-5.4,1.3-7.4,1.9c-1,0.3-1.8,0.5-2.2,0.6c-7.8,1.9-14.6,3-24.1,3c-11.5,0-20.6-1.4-27.6-8.1c-3.5-3.5-5.4-7.9-5.4-10.1
			c0-2.7,2.1-4.3,4.1-4.3c1.2,0,2.4,0.7,5.4,2.6c0.7,0.4,1.6,1,1.8,1.1c5.5,2.5,12.1,3.7,19.7,3.7c12.2,0,23.5-3.2,27.4-4.8
			c-2.2-3.9-8.5-13.3-10.7-15.1c-0.5,0.1-1.1,0.2-1.9,0.3c-4.7,0.7-9,1.4-10.4,1.4c-16,0-29.3-11.1-29.3-16.7c0-1.9,1.5-3.9,3.9-3.9
			c0.8,0,1.9,0.3,5,1.6c0.4,0.2,0.7,0.3,0.8,0.3c6.3,2.1,8.4,2.6,12.8,2.6c3.1,0,6.4-0.4,8.3-0.9c-2.9-4.2-10.9-14.4-17.8-17.8
			l-1.8-0.8c-4.4-2.1-6-2.9-6-5.6c0-3.7,5.2-7.7,10-7.7c4.5,0,17.7,2.4,19.9,9.9c2.8,9.9,6.9,16.7,8.5,18.5c1-0.2,3.3-1,5.8-2.6
			l0.4-0.2c3.8-2.3,4.8-2.9,7.8-2.9c5.2,0,9,3.5,9,8.3c0,4.1-3.1,9.6-10.1,11.9c-0.4,0.1-1.4,0.5-2.2,0.9c2.7,4.3,7.3,11.3,9.2,13.2
			c1.5-0.5,3.7-1.8,4.2-2.7c-0.2-0.3-0.5-0.8-0.8-1.1c-1-1.4-1.7-2.4-1.7-3.5c0-2.2,1.4-3.6,4.3-4.2l0.3-0.1c0.1,0,0.2-0.1,0.4-0.1
			c2.3-0.2,4.3-0.4,6-0.5c3.5-0.3,5.5-0.5,6.4-0.5c8.2,0,14,4.5,14,11c0,5.3-3.2,9.9-18.9,15.6c-0.8,0.3-2.7,0.9-3.8,1.4
			c0.7,1.3,2.7,4.4,5.6,9.1c9.2,14.3,12.9,23.6,12.9,32.1c0,9.4-7.3,15.9-13.8,15.9c-5.6,0-7.2-1.1-20-10l-0.4-0.2
			c-7-4.9-13.1-5.5-17.7-5.5c-17.2,0-23.6,11-23.6,17.9c0,11.9,14,13.2,20,13.2c1.5,0,6-0.4,9.9-0.7c4.2-0.4,7.8-0.7,9.2-0.7
			c5.8,0,11.6,2.9,11.6,9.4C524.7,201.7,505.2,202.7,499.3,202.7z"/>
	</g>
	<g>
		<path d="M673.1,217.2c-2.3,0-2.9-1.4-3.1-2c-0.6-2.2,1.6-3.5,2.6-4.1c5.1-3.3,9.8-6.9,14.2-10.8c-1.9,0.1-4.5,0.1-8.2,0.1h-47.3
			c-4.4,0-4.8,1.1-5.2,3.7c-1.4,7.2-6.8,12.1-13.4,12.1c-7.3,0-8-4.9-8.3-6.9c0-0.3-0.1-0.6-0.1-0.8c-0.2-1,0.1-5.3,0.9-12.8
			c0.8-11.1,1.6-27.2,1.6-40.7c0-11.7-0.2-23.4-0.4-28c-1.6,1.9-3.9,4.9-5.9,7.4c-10.4,13.4-14.1,17.5-17,17.5
			c-1.4,0-2.8-0.9-2.8-2.8c0-0.7,0-0.7,3.7-7.6c22.2-41.8,33.4-65.3,33.4-69.7c0-0.5,0-0.9-2.1-0.9c-4.3,0-16.9,0.2-20.8,0.7
			c-0.1,0-0.2,0-0.3,0s-0.5,0.1-1,0.2c-1.1,0.2-1.8,0.3-2.4,0.3c-1.8,0-2.8-1.3-3.6-2.4l-0.1-0.1l-4.7-5.4c-1.1-1.4-1.5-1.9-1.5-3.2
			c0-1.4,1-2.8,3.1-2.8c2.5,0,9.2,0.4,16.4,0.8c7.2,0.4,14.7,0.9,17.4,0.9c3.7,0,4.7-0.9,5.7-5.3c0.4-1.4,2.1-9.1,2.1-11.3
			s-0.8-3.5-4.7-3.5h-4c-4.6,0-5.4,0.4-14,6.2l-1.2,0.8c-8.2,5.7-12,8.1-14.4,8.1l0,0c-1,0-1.7-0.4-2.1-0.7
			c-0.6-0.5-0.9-1.3-0.9-2.2c0-1,0-1,5.1-6.9c2.3-2.7,4.9-5.7,5.5-6.5c5.2-6.9,16.5-25.3,16.5-28.8c0-0.2-0.4-1.4-0.6-2.2
			c-0.5-1.7-0.8-2.7-0.8-3.5c0-2.2,1.8-3.8,4.3-3.8c2.2,0,12.1,4.5,12.2,4.5c10.5,4.8,11.4,6.5,11.4,8.2c0,3.5-4.3,4.5-5.7,4.9
			c-2.4,0.7-8.3,8.3-9.9,11.1c0.7,0.1,2,0.1,2.8,0.1h26c10.1,0,10.2-0.1,12.1-3.9c1.6-3,3.4-6.3,7.1-6.3c2.7,0,18,9.4,18,15.8
			c0,2.7-1.3,4.3-4,4.8c-2,0.4-5.2,0.4-11.1,0.4H654c-0.9,0-3.1,0.2-4.6,2.2c-1,2.1-5.7,15.7-5.8,17.7l0,0c0.3,0.1,1,0.2,2.4,0.2
			h9.2c10.9,0,10.9-0.1,13.3-3.1L669,56c4.2-5.3,5.2-6.6,8.1-6.6c3.3,0,18.7,9.8,18.7,15.6c0,5.9-6.2,5.9-14.9,5.9h-18.5
			c1.6,0.5,3,1.1,3.7,1.4c7.4,3,8,4.2,8,5.7c0,1.2-0.4,1.8-5.8,7.8c-0.8,0.9-1.6,1.7-2,2.2c-0.2,0.4-0.6,0.9-0.9,1.4
			c-1.3,2-5,7.6-6,9.9c0.2,0,0.4,0,0.5,0c10.9,0,11.3-0.1,13-3.6c1.9-4.1,3.4-7.3,7.8-7.3c5.9,0,16.1,12.2,16.1,16.5
			c0,5.4-3.2,5.4-14.9,5.4h-17.3c-4.5,0-5.2,0-5.2,13c0,2.4,0.3,5.2,1.9,5.2c1,0,3-0.9,4-2.9l0.3-0.5c2.2-4.4,3.3-6.7,7.5-6.7
			c5.7,0,16.1,12.5,16.1,16.8c0,2.7-1.3,4.3-4,4.8c-2,0.4-5.2,0.4-11.1,0.4h-9.9c-4.7,0-5,1.6-5,6.4c0,5.7,0,10.7,0.7,11.4
			c0.1,0,0.4,0.2,1.7,0.2c1.7,0,2.5,0,4.3-3.3c1.6-3,3.7-6.9,7.3-6.9c4.5,0,15.6,11.6,15.6,16.3c0,1.8-0.4,4.2-4,5
			c-2,0.4-5.3,0.4-11.1,0.4h-9c-5.1,0-5.2,0-5.2,10.4c0,6.9,0.6,9.2,4,9.2c1.5,0,3.3-0.4,5-3.8c2.5-5,3.8-7.5,7.3-7.5
			c3.4,0,15.7,10.1,17.5,15.7c13.2-14.3,21-31.3,21-47.2c0-3,0-5.5,0.5-7.3c-1.2,0.4-2.5,0.6-4.1,0.6c-2.8,0-9.5-1-9.5-10.4
			c0-4.1,0.4-16.6,0.9-29.8c0.5-14.4,1-29.3,1-34.5c0-7.9,0-28.8-0.2-36.3c0-1-0.3-4.2-0.6-7c-0.3-3.4-0.6-6.7-0.6-8
			c0-4.5,3-5.2,4.7-5.2c1.6,0,4.4,1.1,10.3,3.9c1.6,0.7,3.3,1.5,3.9,1.7h0.1c4.3,1.7,8.2,1.7,11.4,1.7H754c3.6,0,5.9,0,8-1.3
			c0.3-0.2,1.2-1.1,1.8-1.8c3.3-3.4,5.1-5,7-5c1.3,0,6.8,3.7,9.9,5.8c8.3,5.7,9.4,8.2,9.4,10s-1.6,3.8-5.1,7.6
			c-0.5,0.6-1.1,1.3-1.5,1.7c-0.4,3.4-0.6,23.3-0.6,52.7c0,1.4,0.3,7.3,0.6,13.6c0.4,8.7,0.9,18.5,0.9,21.8c0,5.9,0,17-13.9,17
			c-4.9,0-7.7-2.7-8.3-8v-0.1c-0.3-1.9-0.4-2-1.7-2c-0.7,0-1.4,0-1.4,3.8c0,3.7,0.1,14.3,0.1,25.2c0.1,11.6,0.1,23.6,0.1,28
			c0,5.1,0.7,7.1,8.3,7.1c9.4,0,10.1-2.1,10.6-3.2c0,0,0-0.1,0.1-0.1c0.9-2,2.8-9.4,4.4-15.8c1-4,1.9-7.7,2.7-10.6
			c1.2-4.3,1.8-6.4,4-6.4c3.1,0,3.3,2.9,4.1,14.9c0.4,6,1.1,16.1,2.3,17.8c3.1,4.3,3.7,5.3,3.7,7.7c0,6.5-5,14.2-28.6,14.2
			c-18.2,0-28.4-5.3-30.5-15.6c-0.3-1.3-0.5-16.5-0.5-45.3c-0.4,0.6-1.1,1.5-2.1,2.7c-0.9,1.2-2.5,3.1-2.8,3.7c0,0.1,0,0.1-0.1,0.2
			c-0.4,0.9-1.2,2.6-2.2,4.8c-2.5,5.5-5.8,13.1-6.9,15c-3.8,6.7-17.8,29.1-39.1,37C682.8,214.9,675.3,217.2,673.1,217.2z M629.9,170
			c-4.6,0-4.7,1.3-4.7,7.3c0,12,0.3,12.3,5,12.3h6.6c4.3,0,4.7-0.3,4.7-11.6c0-6.9-0.3-8-4.7-8H629.9z M629.6,140.4
			c-4.5,0-4.7,1-4.7,8.5c0,9.4,0.3,9.9,4.7,9.9h7.6c4.6,0,4.7-1.3,4.7-7.3c0-11.1-0.3-11.1-4.7-11.1L629.6,140.4L629.6,140.4z
			 M720.2,136.2c1.5,0,15.5,3.4,19.5,8c0.1,0.2,0.3,0.3,0.4,0.5c0-3.4,0-6.9,0-10.6c0-5.2-0.2-5.9-5.2-5.9h-7.6
			c-3.2,0-4.3,0.5-4.9,1.9c-0.5,1.5-1.2,4-2.9,6.1C719.7,136.2,719.9,136.2,720.2,136.2z M629.6,110.4c-4.6,0-4.7,1-4.7,8.5
			c0,10.3,0.4,10.6,4.7,10.6h7.6c4.4,0,4.7-0.6,4.7-9.5c0-9.1-0.3-9.7-4.7-9.7L629.6,110.4L629.6,110.4z M727.3,95
			c-4.6,0-4.7,0-4.7,11.1s0.4,11.1,4.7,11.1h31c4.3,0,4.7,0,4.7-13.2c0-8-0.3-9-4.7-9H727.3z M624.7,99.2c0.7,0.1,2,0.1,3,0.1h14.9
			c2.7,0,3.7-0.1,4.4-1.2c1.3-2.2,3.7-13.1,3.9-19.2v-0.2c0.2-2.4,0.4-5.8,2.2-7.7h-7.9c-4.1,0-6.3,0.1-8.1,2.8
			c-0.1,0.2-0.4,0.7-0.7,1.4C627.2,92.9,625.2,97.8,624.7,99.2z M727,61.7c-4.6,0-5,0-5,14.7c0,6.6,0.3,7.8,4.7,7.8h31.7
			c4.6,0,4.7-1.4,4.7-7.6c0-14.9-0.5-14.9-5-14.9C758.1,61.7,727,61.7,727,61.7z M727.5,27.4c-3.5,0-3.7,0.5-4,1.2
			c-0.7,2-0.7,6.4-0.7,13.6c0,7.5,0.3,8.5,4.7,8.5h30.7c4.6,0,4.7,0,4.7-12.5c0-10.9-0.3-10.9-4.7-10.9L727.5,27.4L727.5,27.4z"/>
	</g>
	<g>
		<path d="M814.7,233.3c-3.7,0-5-2-5-3.8c0-3.3,3.7-4.2,6.7-5c12.5-2.7,28.6-13,37.6-23.9c9.4-11.8,14-24.5,17.3-46.9
			c0.8-5.2,1.4-12,1.4-15.8c0-8.3-2.2-8.3-5.6-8.3h-10.8c-15.8,0-26.3,0-33.4,0.4c-1.2,0.3-4,0.6-4.7,0.6c-1.5,0-2.4-1-3.1-1.7
			c-0.1-0.1-0.3-0.3-0.4-0.5c-0.1-0.1-0.1-0.1-0.2-0.2l-3.9-4.7c-0.1-0.1-0.1-0.1-0.1-0.2c-0.1-0.2-0.3-0.4-0.4-0.5
			c-0.4-0.5-0.9-1.1-0.9-2c0-1.7,1.3-3,3-3c1.6,0,7.8,0.6,9.4,0.8c9.2,0.4,18.3,0.6,27.8,0.6h39.9c3.5,0,3.6,0,3.6-8.9
			c0-3.3-0.2-12.6-0.3-21.5c-0.2-8.7-0.3-16.9-0.3-19.8c0-9.1,0-9.9-0.6-14.2c0-0.3-0.3-1.3-0.5-2.3c-0.7-3-1.1-4.8-1.1-5.8
			c0-2,1.4-4,4.6-4c1.3,0,17.3,3.2,18.9,3.9c0.1,0,0.2,0.1,0.3,0.1c0.1,0.1,0.3,0.2,0.5,0.3c1.3,0.7,3.6,2,3.6,4.4
			c0,2.8-2.4,4.8-3.7,5.9c-1.9,1.8-2.3,2.3-2.3,5.4c0,3.3-0.2,12.3-0.3,21.1c-0.2,8.5-0.3,16.4-0.3,19.2c0,8.4,0,13.5,0.7,15.4
			c0.2,0.7,0.3,0.8,3.5,0.8h36.2c8.8,0,9.7-0.2,11.1-2.4c5.9-9.3,7.3-11.5,11-11.5c1.9,0,6.5,2.7,13.6,8c11,8.2,11,9.9,11,10.9
			c0,5.2-5.9,5.2-13.4,5.2h-50.3c-5.3,0-7,1.4-7,9.5c-0.1,5.9-0.2,24.4-0.2,55.2c0,10,0,13.8,24.8,13.8c20.4,0,23.5-3.9,25.4-9.1
			c3.2-8.5,3.5-10.9,4.4-17.8c0-0.1,0-0.1,0-0.2v-0.2c0.3-1.6,0.8-3.9,3.1-3.9c1.5,0,3.4,0.9,4.4,7.8v0.2c1.2,8,3.7,13.7,6.9,15.7
			c1.6,1,3.6,2.2,3.6,5.3c0,7.9-8.9,15.8-17.2,18.2c-6.8,2.1-14.5,2.5-25.6,2.5c-45.4,0-47.8-11.5-47.8-30.2c0-14.1,0-43.5-0.8-60.8
			c-0.3-5.3-1.6-5.9-6.4-5.9h-7.6c1.1,1,1.8,2.4,1.8,3.8c0,1.4-0.9,2.9-3.1,6c-0.3,0.4-0.7,1-0.8,1.2c-0.8,2.1-2,10.5-2.6,15.6
			c-0.4,2.8-0.7,5-0.9,6.1c-6.2,33.5-23.5,55.7-51.4,66.1C831.2,230.8,820.5,233.3,814.7,233.3z M863.9,117c-4.9,0-5.7-2.7-8-9.8
			c-6.1-18.2-11.1-24.9-18-34.3c-3.6-4.8-2.5-6.3-1.9-6.9c0.4-0.4,1-0.9,2.2-0.9c3.4,0,13.3,6.1,20.1,11.6
			c7.5,6,16.5,15.2,16.5,24.3C874.7,104.7,871.3,117,863.9,117z M920.4,116.4c-1.4,0-3-1.2-3-3c0-1,0-1.2,7-11.8
			c0.8-1.3,1.5-2.3,1.8-2.7c10.9-18.1,15.4-30.7,15.8-33.6c0.5-3,1-5.4,3-6.6c0.2-0.1,0.4-0.2,0.6-0.3c0.2,0,0.5-0.1,0.6-0.1
			c1.1,0,2.5,0.6,8.7,4.1l0.8,0.5c10.4,6.1,12,7.1,12,11c0,4.3-3.6,5-6.8,5.5h-0.3c-1.8,1-8.8,8.3-14.4,14.1
			C929.8,110.7,923.7,116.4,920.4,116.4z"/>
	</g>
</g>
<g>
	<path d="M349.6,295.7c-1.5,4.9-1.8,5.8,3.6,5.8c5.1,0,7-0.2,9.7-4.6c0.4-0.1,0.9,0,1,0.3c-0.5,1.5-2,4.6-2.8,5.8
		c-1.6,0-3.4-0.1-5.2-0.1c-1.8,0-3.5,0-5,0h-5.1c-1.8,0-3.3,0-4.7,0.1c-0.4-0.2-0.4-0.8,0-1.1l1.1-0.1c2.1-0.3,2.6-0.8,4-5.3
		l5.2-16.4c1.3-4.2,1.4-4.8-1-5.2l-1.1-0.2c-0.3-0.4-0.2-0.9,0.3-1.1c1.7,0,3.2,0.1,5,0.1c1.9,0,3.3-0.1,5.6-0.1
		c0.3,0.2,0.4,0.9,0,1.1l-1.4,0.2c-2.5,0.3-2.7,0.8-4.1,5.2L349.6,295.7z"/>
	<path d="M383.1,287.5c0,3.4-4.4,5.6-10.7,7.3c-0.3,0.8-0.6,2.2-0.6,3.9c0,1.5,0.9,2.5,2.1,2.5c1.6,0,2.7-0.9,4.6-2.6
		c0.4,0,0.7,0.4,0.6,0.8c-2.7,3.3-5.2,4-7.1,4c-2.7,0-3.6-2.5-3.6-4.6c0-2.8,1.8-8.2,6.6-11.9c2.3-1.8,4-2.1,5.3-2.1
		C382.1,284.9,383.1,286.4,383.1,287.5z M376.1,288.4c-1.7,1.9-2.7,3.9-3.3,5.2c2.9-0.9,4.3-1.7,5.9-3.3c1.4-1.3,1.7-2.6,1.7-3
		s-0.2-1-1-1C378.8,286.2,377.7,286.6,376.1,288.4z"/>
	<path d="M394.1,287.6l-4,11.6c-0.3,0.8,0,1.1,0.3,1.1c0.7,0,3.6-2.3,5-4c0.4,0,0.7,0.3,0.6,0.8c-2.5,3.7-6.6,6.4-8.5,6.4
		c-0.6,0-1.2-0.7-1.2-1.2c0-0.6,0.2-1.2,0.6-2.5l4.2-12.2h-3.4c-0.1-0.4,0-1.1,0.5-1.2l3.5-0.6l2.5-4.4c0.4-0.3,1.3-0.2,1.7,0.3
		l-1.3,4.3h4.8c0.3,0.4,0,1.3-0.5,1.6L394.1,287.6L394.1,287.6z"/>
	<path d="M411.6,275.4l-2.9,7.1c-0.1,0.4-0.8,0.4-1,0l0.8-7.1c0.3-2.4,0.4-2.8,2.3-2.8C412.6,272.6,412.5,273.2,411.6,275.4z"/>
	<path d="M422.8,287.4c0,0.7-0.4,1.2-0.8,1.4c-0.3,0.1-0.6,0-0.8-0.4c-0.8-0.8-1.3-1.4-2.7-1.4c-1.3,0-1.8,1.1-1.8,1.8
		c0,0.9,0.2,1.9,1.5,4c1.1,1.9,1.8,3,1.7,4.9c0,1.2-0.7,2.8-2.3,4.2c-1.1,1-2.8,1.6-4.5,1.6s-2.7-1.3-2.7-2.3c0-0.4,0.2-0.9,0.7-1.5
		c0.4-0.3,0.8-0.3,1.2,0c0.6,0.7,1.9,1.8,3.1,1.8c1.1,0,2.1-1.1,2.1-2.5c0-0.8-0.5-2.1-1.6-3.9c-1.1-1.9-1.5-3.4-1.5-4.1
		c0-1.7,0.8-3,2.7-4.6c1.3-1.1,2.7-1.5,3.3-1.5C421.8,284.9,422.8,286.3,422.8,287.4z"/>
	<path d="M451.3,285.3c0.5,0.2,0.9,0.4,1.1,0.4c0.4,0,1.3,0,2.1-0.3c0.8-0.2,1.7-0.4,2-0.4c0.6,0,0.9,0.4,0.9,1.1c0,1-0.5,1.4-1,1.4
		c-0.4,0-1.1-0.1-1.5-0.2s-1.3-0.3-1.6-0.3c-0.2,0-0.4,0.1-0.4,0.3c0.1,0.4,0.3,1.1,0.3,1.7c0,3.6-2.6,6.9-5.6,8.8
		c-0.5,0.3-2.2,0.9-3.1,1.1c-0.5,0.3-1,0.9-1,1.5c0,0.5,0.3,1.3,1.5,2.1c1,0.7,2.7,1.7,4.3,2.7c2.6,1.5,3.3,2.9,3.3,4.3
		c0,2.5-3.6,5.3-10.8,5.3c-3.2,0-7-1.2-7-4.2c0-3.4,5.2-5.5,7.6-6.2c-1.1-0.8-1.4-1.4-1.4-2c0-0.8,1.4-2.6,2-3.4
		c-0.8-0.2-3.2-1-3.2-4c0-2.5,1.4-5.5,3.6-7.4c2.1-1.8,4.2-2.7,6.5-2.7C450.4,284.9,450.8,285.1,451.3,285.3z M449.7,310.3
		c0-0.8-0.5-1.7-1.9-2.7c-1.9-1.2-3.4-2.1-4.1-2.2c-1.1-0.1-2.8,0.7-4.1,1.6c-1.2,0.9-1.7,1.9-1.7,2.9c0,2.1,3,3.4,6,3.4
		C445.9,313.3,449.7,312.4,449.7,310.3z M446.4,288c-1.7,2-4,5.9-4,8.1c0,0.9,0.6,1.5,1.3,1.5c0.6,0,1.7-0.3,2.9-1.7
		c2.5-2.9,4-6.9,4-8.3c0-0.9-0.7-1.5-1.3-1.5C448.6,286.1,447.8,286.5,446.4,288z"/>
	<path d="M473.8,290.4c-0.1,2.4-1.4,6.7-4.7,10c-2.7,2.8-5.1,3.1-6.3,3.1c-2.8,0-4.7-2.1-4.4-5.9c0.2-2.7,1.8-7,4.8-9.9
		c2.3-2.2,4.3-2.9,6.1-2.9C472.5,284.9,474,287.2,473.8,290.4z M465.8,288.3c-2.6,3.4-4.3,8.7-4.4,11.1c-0.1,1.5,0.5,2.8,1.8,2.8
		c1,0,2.1-0.4,3.5-2.3c1.9-2.6,4-8.4,4.1-10.8c0-1.4-0.2-2.9-1.8-2.9C468.1,286.2,467.1,286.6,465.8,288.3z"/>
	<path d="M507.3,290.4c-0.1,2.4-1.4,6.7-4.7,10c-2.7,2.8-5.1,3.1-6.3,3.1c-2.8,0-4.7-2.1-4.4-5.9c0.2-2.7,1.8-7,4.8-9.9
		c2.3-2.2,4.3-2.9,6.1-2.9C505.9,284.9,507.4,287.2,507.3,290.4z M499.2,288.3c-2.6,3.4-4.3,8.7-4.4,11.1c-0.1,1.5,0.5,2.8,1.8,2.8
		c1,0,2.1-0.4,3.5-2.3c1.9-2.6,4-8.4,4.1-10.8c0-1.4-0.2-2.9-1.8-2.9C501.5,286.2,500.5,286.6,499.2,288.3z"/>
	<path d="M517.7,294.4l0.1,0.1c3.1-4.8,7.5-9.6,10.8-9.6c1.7,0,2.5,0.9,2.5,2.4c0,0.7-0.4,2.1-0.7,3.1c-0.8,2.2-4,9.4-4.1,9.8
		c-0.2,0.4-0.2,0.8,0.1,0.8c0.8,0,2.9-1.5,4.2-3c0.6-0.1,0.7,0.3,0.7,0.6c-1.7,2.8-5.2,5-7.6,5c-0.4,0-1.1-0.6-1.1-1.1
		c0-0.4,0.1-0.7,1.1-2.9c0.9-2.2,2.6-6.5,3.6-8.7c0.4-0.8,0.9-2.3,0.9-3.2c0-0.5,0-1.1-0.7-1.1c-1.1,0-3.7,2.2-6.1,5.3
		c-2.3,2.9-4.2,6.4-6.8,11.2c-0.2,0.4-0.4,0.5-0.8,0.5c-0.5,0-1.7-0.1-1.3-1.1c0.2-0.6,4.9-13.3,5.1-13.9c0.2-0.6,0.2-1-0.1-1
		c-1,0-2.6,0.9-4,2.2c-0.4,0-0.6-0.3-0.5-0.7c1.7-2.3,4.4-4.1,6.6-4.1c1.1,0,1.5,0.8,1.1,1.8L517.7,294.4z"/>
	<path d="M565.3,283.8c0.8-0.4,1.9,0.1,2.2,0.7c-0.7,1.6-4.5,11.4-5.9,15.4c-0.3,0.8,0,1,0.3,1c0.8,0,2-0.8,4.6-3
		c0.3,0,0.6,0.2,0.6,0.6c-1.9,2.5-5,5-7.4,5c-1,0-1.3-0.8-1.3-1.2c0-0.3,0.1-0.7,0.4-1.7l1.5-4h-0.1c-3.1,3.9-7.6,6.9-9.7,6.9
		c-1.2,0-1.9-1.2-1.9-2.5c0-1,1-4.6,3.9-8.6c2.1-2.9,4-4.7,5.8-5.7c1.7-1,2.8-1.3,4-1.3c0.5,0,0.8,0.1,1.1,0.3
		c0.2,0.1,0.7,0.5,0.9,0.9L565.3,283.8z M557.6,288.9c-2.8,2.5-5.5,8.3-5.5,11.5c0,0.5,0.3,0.8,0.7,0.8s1.8-0.6,4.3-2.9
		c3.4-3.1,5.2-6.9,5.9-9.5c-0.3-0.8-1.1-1.6-2.2-1.6C559.7,287.2,559,287.6,557.6,288.9z"/>
	<path d="M592.7,287.6l-4,11.6c-0.3,0.8,0,1.1,0.3,1.1c0.7,0,3.6-2.3,5-4c0.4,0,0.7,0.3,0.6,0.8c-2.5,3.7-6.6,6.4-8.5,6.4
		c-0.6,0-1.2-0.7-1.2-1.2c0-0.6,0.2-1.2,0.6-2.5l4.2-12.2h-3.4c-0.1-0.4,0-1.1,0.5-1.2l3.5-0.6l2.5-4.4c0.4-0.3,1.3-0.2,1.7,0.3
		l-1.3,4.3h4.8c0.3,0.4,0,1.3-0.5,1.6L592.7,287.6L592.7,287.6z"/>
	<path d="M606.8,289.1l-1.9,5.6h0.2c1.3-2.5,3.5-6,4.6-7.5c1-1.3,2.1-2.3,3.2-2.3c1.5,0,1.8,1.5,1.8,2.2s-0.4,1.9-0.9,2.7
		c-0.5,0.7-1.2,0.7-1.4-0.2c-0.2-1.1-0.5-1.7-0.9-1.7s-0.9,0.4-1.5,1.3c-2.7,3.4-5.2,8.8-7.5,13.9c-0.2,0.4-0.4,0.5-0.8,0.5
		c-0.5,0-1.8-0.2-1.5-1.1c0.6-1.8,3.4-9.6,4.6-13.9c0.1-0.5,0-0.9-0.4-0.9c-1.1,0-2.3,1.2-3.1,2.3c-0.4,0.1-0.8-0.2-0.7-0.7
		c1.4-2.4,3.1-4.2,5.2-4.2C607.9,284.9,607.2,287.9,606.8,289.1z"/>
	<path d="M622.6,288.5c0.2-0.5,0.2-0.8-0.1-0.8s-1.5,0.5-3.7,2.3c-0.4,0-0.7-0.4-0.6-0.8c2.4-2.8,5.8-4.4,7.3-4.4
		c0.3,0,0.5,0.3,0.7,0.4c0.3,0.3,0.3,0.7-0.3,1.9l-5.3,12.6c-0.2,0.4-0.2,1,0.1,1c0.8,0,3.1-1.5,4.6-3.3c0.4,0,0.7,0.4,0.7,0.8
		c-0.7,1.3-5.2,5.3-8.3,5.3c-0.2,0-0.5-0.1-0.7-0.4c-0.3-0.3-0.4-0.7-0.2-1.2L622.6,288.5z M627.8,277.4c0,1.4-1,2.7-2.3,2.7
		c-1.1,0-1.5-0.9-1.5-1.6c0-1,0.6-2.8,2.3-2.8C627.4,275.8,627.8,276.5,627.8,277.4z"/>
	<path d="M640.7,285.6c0.4,0,0.8-0.1,1.7-0.1c2,0,6,0.8,6,5c0,4.1-2.5,7.6-5.8,10.5c-2.8,2.3-6.1,2.5-6.3,2.5
		c-0.4,0-0.8-0.1-1.4-0.3c-0.4,0.1-0.6,0.4-0.7,0.8l-1.8,5.2c-1.2,3.4-1.1,3.8,0.4,4l1.8,0.3c0.2,0.3,0.2,0.8-0.2,1
		c-3.4,0-6.7,0.2-9.6,0.3c-0.3-0.3-0.3-0.7,0-1l1-0.2c2.5-0.4,2.7-1.5,3.3-3.3l8.2-23.1c-1.6,0.4-2.6,0.9-4.5,1.8
		c-0.4,0-0.6-0.4-0.4-0.8c1.5-1.1,3.3-1.9,5.5-2.4l1.3-3.6c0.6-0.5,2.3,0,2.5,0.6L640.7,285.6z M635.8,299.8c-0.2,0.5-0.1,0.9,0,1.2
		c0.3,0.4,0.9,1,1.6,1c0.6,0,3.1-0.6,5-3.6c2.1-3.3,2.6-6.4,2.6-8.3c0-2.2-1.6-3.3-3.5-3.3c-0.5,0-0.8,0-1.1,0.1L635.8,299.8z"/>
	<path d="M656.9,300.7c0,1.8-1.2,2.8-2.5,2.8c-1.2,0-1.9-0.8-1.9-2.1c0-1.6,1.2-2.7,2.5-2.7C656.2,298.7,656.9,299.7,656.9,300.7z
		 M664.1,275.8c-0.2,0.5-0.6,1.5-1.5,3.7l-5.5,14.4c-0.2,0.4-0.9,0.4-1.1,0l3.1-14.3c0.5-2.3,0.7-3.3,0.9-3.8
		c0.4-1.2,0.8-1.4,2.3-1.4C664,274.3,664.4,274.9,664.1,275.8z"/>
	<path d="M10.7,333.1c1.3-4.2,1.4-4.8-0.8-5.2l-1-0.2c-0.3-0.4-0.2-0.9,0.3-1.1c1.4,0.1,2.9,0.1,4.8,0.1s3.3,0,5.3-0.1
		c0.3,0.2,0.4,0.9-0.1,1.1l-0.9,0.2c-2.6,0.5-2.8,0.8-4.2,5.2l-1.9,5.8c-0.3,1-0.3,1.2,0.8,1.2c0.7,0,1.3-0.1,1.9-0.4
		c0.9-0.5,2.7-2,4.6-3.8l4.4-4.2c2.4-2.3,2.9-2.9,2.9-3.3c0-0.3-0.5-0.4-1.1-0.5l-0.8-0.2c-0.3-0.3-0.2-1,0.2-1.1
		c1.5,0.1,3,0.1,4.9,0.1c2.2,0,3.5-0.1,4.8-0.1c0.4,0.2,0.4,0.9,0,1.1l-0.9,0.2c-0.8,0.1-1.9,0.4-3,0.8c-1.1,0.5-3.4,1.9-7.8,5.9
		l-5.7,5.2c-0.8,0.7-0.8,0.7-0.4,1.7l4.9,9.7c1.2,2.4,1.9,3.4,4,3.6L27,355c0.3,0.3,0.2,1-0.1,1.1c-1.4-0.1-3.3-0.1-4.7-0.1
		c-1.7,0-3.3,0-5,0.1c-0.2-0.4-0.2-0.9,0.1-1.1l1.1-0.1c1.5-0.2,1.3-0.6,0.4-2.4l-4.6-9.1c-0.9-1.8-1.4-2-1.8-2
		c-0.8,0-1.2,0.4-1.5,1.2l-2.2,7c-1.3,4.1-1.4,5,0.8,5.3L11,355c0.3,0.3,0.1,0.9-0.2,1.1c-2-0.1-3.6-0.1-5.5-0.1c-1.8,0-3.3,0-5,0.1
		c-0.4-0.2-0.4-0.8,0-1.1l1.4-0.1c2.1-0.2,2.6-0.8,4-5.3L10.7,333.1z"/>
	<path d="M36,352.1c-0.4,1.1-0.2,1.5,0.3,1.5c0.7,0,2.4-1.4,4.7-3.7c4-4,6.3-9.1,7.8-11.8c0.9-0.2,2,0.3,2.2,0.8
		c-0.4,1.2-3.3,8.4-5.2,13.7c-0.2,0.6-0.3,1.1,0.2,1.1c0.8,0,3.2-2.1,4.3-3.4c0.4-0.1,0.8,0.1,0.8,0.6c-1.1,2.1-5.4,5.6-7.7,5.6
		c-0.7,0-1.4-0.8-1.1-1.5l3-8.1h-0.1c-3.2,4-8.7,9.7-11.1,9.7c-1.8,0-2-1.8-1.3-3.8l4.1-10.7c0.3-0.8,0.4-1.3,0-1.3
		c-0.8,0-3.1,1.9-4.2,3.1c-0.4,0.1-0.8-0.3-0.8-0.7c1.1-1.8,5.6-5.3,7.6-5.3c0.6,0,1.6,0.6,1.3,1.3L36,352.1z"/>
	<path d="M63,342.1l-1.9,5.6h0.2c1.3-2.5,3.5-6,4.6-7.5c1-1.3,2.1-2.3,3.2-2.3c1.5,0,1.8,1.5,1.8,2.2s-0.4,1.9-0.9,2.7
		c-0.5,0.7-1.2,0.7-1.4-0.2c-0.2-1.1-0.5-1.7-0.9-1.7s-0.9,0.4-1.5,1.3c-2.7,3.4-5.2,8.8-7.5,13.9c-0.2,0.4-0.4,0.5-0.8,0.5
		c-0.5,0-1.8-0.2-1.5-1.1c0.6-1.8,3.4-9.6,4.6-13.9c0.1-0.5,0-0.9-0.4-0.9c-1.1,0-2.3,1.2-3.1,2.3c-0.4,0.1-0.8-0.2-0.7-0.7
		c1.4-2.4,3.1-4.2,5.2-4.2C64.1,337.9,63.4,340.9,63,342.1z"/>
	<path d="M88.6,336.9c0.8-0.4,1.9,0.1,2.2,0.7c-0.7,1.6-4.5,11.4-5.9,15.4c-0.3,0.8,0,1,0.3,1c0.8,0,2-0.8,4.6-3
		c0.3,0,0.6,0.2,0.6,0.6c-1.9,2.5-5,5-7.4,5c-1,0-1.3-0.8-1.3-1.2c0-0.3,0.1-0.7,0.4-1.7l1.5-4h-0.1c-3.1,3.9-7.6,6.9-9.7,6.9
		c-1.2,0-1.9-1.2-1.9-2.5c0-1,1-4.6,3.9-8.6c2.1-2.9,4-4.7,5.8-5.7c1.7-1,2.8-1.3,4-1.3c0.5,0,0.8,0.1,1.1,0.3
		c0.2,0.1,0.7,0.5,0.9,0.9L88.6,336.9z M80.9,341.9c-2.8,2.5-5.5,8.3-5.5,11.5c0,0.5,0.3,0.8,0.7,0.8c0.4,0,1.8-0.6,4.3-2.9
		c3.4-3.1,5.2-6.9,5.9-9.5c-0.3-0.8-1.1-1.6-2.2-1.6C83,340.2,82.3,340.7,80.9,341.9z"/>
	<path d="M105.3,340.4c0,0.7-0.4,1.2-0.8,1.4c-0.3,0.1-0.6,0-0.8-0.4c-0.8-0.8-1.3-1.4-2.7-1.4c-1.3,0-1.8,1.1-1.8,1.8
		c0,0.9,0.2,1.9,1.5,4c1.1,1.9,1.8,3,1.7,4.9c0,1.2-0.7,2.8-2.3,4.2c-1.1,1-2.8,1.6-4.5,1.6s-2.7-1.3-2.7-2.3c0-0.4,0.2-0.9,0.7-1.5
		c0.4-0.3,0.8-0.3,1.2,0c0.6,0.7,1.9,1.8,3.1,1.8c1.1,0,2.1-1.1,2.1-2.5c0-0.8-0.5-2.1-1.6-3.9c-1.1-1.9-1.5-3.4-1.5-4.1
		c0-1.7,0.8-3,2.7-4.6c1.3-1.1,2.7-1.5,3.3-1.5C104.3,337.9,105.3,339.3,105.3,340.4z"/>
	<path d="M121.4,324.6c-0.9,2.5-2.3,6.5-3.2,9l-4.6,13.2l0.1,0.1c3.1-4.4,5.4-6.1,7-7.3c1.6-1.1,3-1.7,4.2-1.7c1.9,0,2.7,1.4,2.7,3
		c0,3.1-1.9,7.5-3.4,10.3c-0.8,1.5-1.7,2.5-2.9,3.6c-1.5,1.5-2.7,1.7-3.2,1.7c-1.5,0-1.6-0.9-1.6-1.3c0-0.8,0.6-1.4,1.2-1.4
		c0.2,0,0.4,0.1,0.6,0.3c0.4,0.3,0.8,0.6,1.1,0.6c0.7,0,1.1-0.7,1.8-2.2c1.2-2.9,3.2-9,3.2-11.4c0-0.8-0.3-1.3-0.9-1.3
		s-1.5,0.5-2.4,1.2c-1.9,1.4-3.3,2.9-5.6,5.9c-2,2.7-4.2,6.9-5.3,9.2c-0.2,0.4-0.4,0.5-0.8,0.5c-0.5,0-1.6-0.1-1.3-1.1l8.4-24.8
		c1-2.9,1.2-3.5,0.5-4l-0.9-0.6c-0.1-0.2-0.1-0.4,0.1-0.6C116.9,325.2,119.8,324.6,121.4,324.6L121.4,324.6z"/>
	<path d="M137.6,341.6c0.2-0.5,0.2-0.8-0.1-0.8s-1.5,0.5-3.7,2.3c-0.4,0-0.7-0.4-0.6-0.8c2.4-2.8,5.8-4.4,7.3-4.4
		c0.3,0,0.5,0.3,0.7,0.4c0.3,0.3,0.3,0.7-0.3,1.9l-5.3,12.6c-0.2,0.4-0.2,1,0.1,1c0.8,0,3.1-1.5,4.6-3.3c0.4,0,0.7,0.4,0.7,0.8
		c-0.7,1.3-5.2,5.3-8.3,5.3c-0.2,0-0.5-0.1-0.7-0.4c-0.3-0.3-0.4-0.7-0.2-1.2L137.6,341.6z M142.9,330.5c0,1.4-1,2.7-2.3,2.7
		c-1.1,0-1.5-0.9-1.5-1.6c0-1,0.6-2.8,2.3-2.8C142.4,328.8,142.9,329.5,142.9,330.5z"/>
	<path d="M154.1,331c1-3.1,1.1-3.7,0.3-4l-0.8-0.4c-0.3-0.2-0.3-0.4-0.1-0.7c1.3-0.6,3.5-1.2,5.4-1.6l0.3,0.2
		c-0.4,1.2-0.8,2.7-2.2,6.5l-4.6,13.1h0.1c1.3-1.7,2.7-3.2,4.5-4.6c1.2-0.9,2.9-1.7,4.8-1.7c2.6,0,3.2,1.5,3.2,2.4
		c0,0.5-0.2,1.7-1.8,3.2c-2.1,1.9-4.2,3.4-7.1,3.9c-0.3,0.2-0.2,0.6-0.1,0.8c0.4,1.3,1.1,3.2,1.6,4.2s1,1.5,1.4,1.5
		c0.6,0,1.4-0.6,2.7-2.1c0.4,0,0.6,0.2,0.6,0.5c-1.5,3.3-3.8,4.2-4.5,4.2c-0.8,0-1.3-0.5-2-1.8c-0.5-1-1.6-3.5-2-4.7
		c-0.4-1.1-0.8-1.6-1.6-1.5c-0.9,0.2-1.1,0.4-1.6,1.8l-2.3,5.6c-0.2,0.4-0.4,0.6-0.8,0.6c-0.5,0-1.8-0.1-1.4-1.1L154.1,331z
		 M160.2,339.8c-1.1,0-2.8,1-4.3,2.3c-1.6,1.4-3.5,3.5-4.1,4.8c-0.2,0.4-0.1,0.8,0.4,0.7c0.9-0.1,3.4-0.8,6.5-2.9
		c1.9-1.2,2.8-2.8,2.8-3.7C161.6,340.4,161.2,339.8,160.2,339.8z"/>
	<path d="M174.1,341.6c0.2-0.5,0.2-0.8-0.1-0.8s-1.5,0.5-3.7,2.3c-0.4,0-0.7-0.4-0.6-0.8c2.4-2.8,5.8-4.4,7.3-4.4
		c0.3,0,0.5,0.3,0.7,0.4c0.3,0.3,0.3,0.7-0.3,1.9l-5.3,12.6c-0.2,0.4-0.2,1,0.1,1c0.8,0,3.1-1.5,4.6-3.3c0.4,0,0.7,0.4,0.7,0.8
		c-0.7,1.3-5.2,5.3-8.3,5.3c-0.2,0-0.5-0.1-0.7-0.4c-0.3-0.3-0.4-0.7-0.2-1.2L174.1,341.6z M179.4,330.5c0,1.4-1,2.7-2.3,2.7
		c-1.1,0-1.5-0.9-1.5-1.6c0-1,0.6-2.8,2.3-2.8C178.9,328.8,179.4,329.5,179.4,330.5z"/>
	<path d="M205.2,332.2c1.1-3.4,0.7-3.9-1.3-3.9h-1.5c-0.3-0.2-0.2-0.8,0-1.1c1.6-0.2,4.2-0.5,7.4-0.5c2.3,0,5,0.2,7.2,1.1
		s3.8,2.6,3.8,5.6c0,4.5-4.5,6.5-6.9,6.7c-0.7,0-0.4,0.4,0,0.5c2.5,0.8,4.6,3.3,4.6,6.5c0,1.6-0.5,3.9-2.4,5.7
		c-1.9,1.9-5.1,3.4-10.6,3.4c-2.4,0-4-0.1-5.9-0.1c-1.8,0-3.3,0-4.6,0.1c-0.4-0.2-0.4-0.8,0-1.1l0.9-0.1c2.1-0.3,2.6-0.8,4-5.3
		L205.2,332.2z M202.8,350.9c-0.9,2.9,0.4,3.8,3.5,3.8c3.7,0,8.4-2.3,8.4-8.3c0-3.8-3.2-5.6-6.5-5.6c-2.1,0-2.3,0-2.7,1.5
		L202.8,350.9z M206.7,338.3c-0.3,1.1-0.3,1.3,1.6,1.3c3.2,0,8.8-1.5,8.8-7.1c0-2.6-1.9-4.4-5.6-4.4c-1.7,0-1.7,0-2.2,1.4
		L206.7,338.3z"/>
	<path d="M229.8,341.6c0.2-0.5,0.2-0.8-0.1-0.8s-1.5,0.5-3.7,2.3c-0.4,0-0.7-0.4-0.6-0.8c2.4-2.8,5.8-4.4,7.3-4.4
		c0.3,0,0.5,0.3,0.7,0.4c0.3,0.3,0.3,0.7-0.3,1.9l-5.3,12.6c-0.2,0.4-0.2,1,0.1,1c0.8,0,3.1-1.5,4.6-3.3c0.4,0,0.7,0.4,0.7,0.8
		c-0.7,1.3-5.2,5.3-8.3,5.3c-0.2,0-0.5-0.1-0.7-0.4c-0.3-0.3-0.4-0.7-0.2-1.2L229.8,341.6z M235,330.5c0,1.4-1,2.7-2.3,2.7
		c-1.1,0-1.5-0.9-1.5-1.6c0-1,0.6-2.8,2.3-2.8C234.6,328.8,235,329.5,235,330.5z"/>
	<path d="M246.2,331c1-3.1,1.1-3.7,0.3-4l-0.8-0.4c-0.3-0.2-0.3-0.4-0.1-0.7c1.3-0.6,3.5-1.2,5.4-1.6l0.3,0.2
		c-0.4,1.2-0.8,2.7-2.2,6.5l-4.6,13.1h0.1c1.3-1.7,2.7-3.2,4.5-4.6c1.2-0.9,2.9-1.7,4.8-1.7c2.6,0,3.2,1.5,3.2,2.4
		c0,0.5-0.2,1.7-1.8,3.2c-2.1,1.9-4.2,3.4-7.1,3.9c-0.3,0.2-0.2,0.6-0.1,0.8c0.4,1.3,1.1,3.2,1.6,4.2s1,1.5,1.4,1.5
		c0.6,0,1.4-0.6,2.7-2.1c0.4,0,0.6,0.2,0.6,0.5c-1.5,3.3-3.8,4.2-4.5,4.2c-0.8,0-1.3-0.5-2-1.8c-0.5-1-1.6-3.5-2-4.7
		c-0.4-1.1-0.8-1.6-1.6-1.5c-0.9,0.2-1.1,0.4-1.6,1.8l-2.3,5.6c-0.2,0.4-0.4,0.6-0.8,0.6c-0.5,0-1.8-0.1-1.4-1.1L246.2,331z
		 M252.3,339.8c-1.1,0-2.8,1-4.3,2.3c-1.6,1.4-3.5,3.5-4.1,4.8c-0.2,0.4-0.1,0.8,0.4,0.7c0.9-0.1,3.4-0.8,6.5-2.9
		c1.9-1.2,2.8-2.8,2.8-3.7C253.7,340.4,253.3,339.8,252.3,339.8z"/>
	<path d="M276.2,336.9c0.8-0.4,1.9,0.1,2.2,0.7c-0.7,1.6-4.5,11.4-5.9,15.4c-0.3,0.8,0,1,0.3,1c0.8,0,2-0.8,4.6-3
		c0.3,0,0.6,0.2,0.6,0.6c-1.9,2.5-5,5-7.4,5c-1,0-1.3-0.8-1.3-1.2c0-0.3,0.1-0.7,0.4-1.7l1.5-4h-0.1c-3.1,3.9-7.6,6.9-9.7,6.9
		c-1.2,0-1.9-1.2-1.9-2.5c0-1,1-4.6,3.9-8.6c2.1-2.9,4-4.7,5.8-5.7c1.7-1,2.8-1.3,4-1.3c0.5,0,0.8,0.1,1.1,0.3
		c0.2,0.1,0.7,0.5,0.9,0.9L276.2,336.9z M268.5,341.9c-2.8,2.5-5.5,8.3-5.5,11.5c0,0.5,0.3,0.8,0.7,0.8c0.4,0,1.8-0.6,4.3-2.9
		c3.4-3.1,5.2-6.9,5.9-9.5c-0.3-0.8-1.1-1.6-2.2-1.6C270.5,340.2,269.8,340.7,268.5,341.9z"/>
	<path d="M288,347.5l0.1,0.1c3.1-4.8,7.5-9.6,10.8-9.6c1.7,0,2.5,0.9,2.5,2.4c0,0.7-0.4,2.1-0.7,3.1c-0.8,2.2-4,9.4-4.1,9.8
		c-0.2,0.4-0.2,0.8,0.1,0.8c0.8,0,2.9-1.5,4.2-3c0.6-0.1,0.7,0.3,0.7,0.6c-1.7,2.8-5.2,5-7.6,5c-0.4,0-1.1-0.6-1.1-1.1
		c0-0.4,0.1-0.7,1.1-2.9c0.9-2.2,2.6-6.5,3.6-8.7c0.4-0.8,0.9-2.3,0.9-3.2c0-0.5,0-1.1-0.7-1.1c-1.1,0-3.7,2.2-6.1,5.3
		c-2.3,2.9-4.2,6.4-6.8,11.2c-0.2,0.4-0.4,0.5-0.8,0.5c-0.5,0-1.7-0.1-1.3-1.1c0.2-0.6,4.9-13.3,5.1-13.9s0.2-1-0.1-1
		c-1,0-2.6,0.9-4,2.2c-0.4,0-0.6-0.3-0.5-0.7c1.7-2.3,4.4-4.1,6.6-4.1c1.1,0,1.5,0.8,1.1,1.8L288,347.5z"/>
	<path d="M332.7,324.6c-0.9,2.5-2.3,6.5-3.2,9l-4.6,13.2l0.1,0.1c3.1-4.4,5.4-6.1,7-7.3c1.6-1.1,3-1.7,4.2-1.7c1.9,0,2.7,1.4,2.7,3
		c0,3.1-1.9,7.5-3.4,10.3c-0.8,1.5-1.7,2.5-2.9,3.6c-1.5,1.5-2.7,1.7-3.2,1.7c-1.5,0-1.6-0.9-1.6-1.3c0-0.8,0.6-1.4,1.2-1.4
		c0.2,0,0.4,0.1,0.6,0.3c0.4,0.3,0.8,0.6,1.1,0.6c0.7,0,1.1-0.7,1.8-2.2c1.2-2.9,3.2-9,3.2-11.4c0-0.8-0.3-1.3-0.9-1.3
		s-1.5,0.5-2.4,1.2c-1.9,1.4-3.3,2.9-5.6,5.9c-2,2.7-4.2,6.9-5.3,9.2c-0.2,0.4-0.4,0.5-0.8,0.5c-0.5,0-1.6-0.1-1.3-1.1l8.4-24.8
		c1-2.9,1.2-3.5,0.5-4l-0.9-0.6c-0.1-0.2-0.1-0.4,0.1-0.6C328.2,325.2,331.1,324.6,332.7,324.6L332.7,324.6z"/>
	<path d="M349,341.6c0.2-0.5,0.2-0.8-0.1-0.8s-1.5,0.5-3.7,2.3c-0.4,0-0.7-0.4-0.6-0.8c2.4-2.8,5.8-4.4,7.3-4.4
		c0.3,0,0.5,0.3,0.7,0.4c0.3,0.3,0.3,0.7-0.3,1.9l-5.3,12.6c-0.2,0.4-0.2,1,0.1,1c0.8,0,3.1-1.5,4.6-3.3c0.4,0,0.7,0.4,0.7,0.8
		c-0.7,1.3-5.2,5.3-8.3,5.3c-0.2,0-0.5-0.1-0.7-0.4c-0.3-0.3-0.4-0.7-0.2-1.2L349,341.6z M354.2,330.5c0,1.4-1,2.7-2.3,2.7
		c-1.1,0-1.5-0.9-1.5-1.6c0-1,0.6-2.8,2.3-2.8C353.7,328.8,354.2,329.5,354.2,330.5z"/>
	<path d="M368.1,340.4c0,0.7-0.4,1.2-0.8,1.4c-0.3,0.1-0.6,0-0.8-0.4c-0.8-0.8-1.3-1.4-2.7-1.4c-1.3,0-1.8,1.1-1.8,1.8
		c0,0.9,0.2,1.9,1.5,4c1.1,1.9,1.8,3,1.7,4.9c0,1.2-0.7,2.8-2.3,4.2c-1.1,1-2.8,1.6-4.5,1.6s-2.7-1.3-2.7-2.3c0-0.4,0.2-0.9,0.7-1.5
		c0.4-0.3,0.8-0.3,1.2,0c0.6,0.7,1.9,1.8,3.1,1.8c1.1,0,2.1-1.1,2.1-2.5c0-0.8-0.5-2.1-1.6-3.9c-1.1-1.9-1.5-3.4-1.5-4.1
		c0-1.7,0.8-3,2.7-4.6c1.3-1.1,2.7-1.5,3.3-1.5C367.1,337.9,368.1,339.3,368.1,340.4z"/>
	<path d="M379.4,340.6l-4,11.6c-0.3,0.8,0,1.1,0.3,1.1c0.7,0,3.6-2.3,5-4c0.4,0,0.7,0.3,0.6,0.8c-2.5,3.7-6.6,6.4-8.5,6.4
		c-0.6,0-1.2-0.7-1.2-1.2c0-0.6,0.2-1.2,0.6-2.5l4.2-12.2H373c-0.1-0.4,0-1.1,0.5-1.2l3.5-0.6l2.5-4.4c0.4-0.3,1.3-0.2,1.7,0.3
		l-1.3,4.3h4.8c0.3,0.4,0,1.3-0.5,1.6L379.4,340.6L379.4,340.6z"/>
	<path d="M401.6,343.5c-0.1,2.4-1.4,6.7-4.7,10c-2.7,2.8-5.1,3.1-6.3,3.1c-2.8,0-4.7-2.1-4.4-5.9c0.2-2.7,1.8-7,4.8-9.9
		c2.3-2.2,4.3-2.9,6.1-2.9C400.2,337.9,401.8,340.2,401.6,343.5z M393.6,341.4c-2.6,3.4-4.3,8.7-4.4,11.1c-0.1,1.5,0.5,2.8,1.8,2.8
		c1,0,2.1-0.4,3.5-2.3c1.9-2.6,4-8.4,4.1-10.8c0-1.4-0.2-2.9-1.8-2.9C395.9,339.2,394.8,339.6,393.6,341.4z"/>
	<path d="M413.6,342.1l-1.9,5.6h0.2c1.3-2.5,3.5-6,4.6-7.5c1-1.3,2.1-2.3,3.2-2.3c1.5,0,1.8,1.5,1.8,2.2s-0.4,1.9-0.9,2.7
		c-0.5,0.7-1.2,0.7-1.4-0.2c-0.2-1.1-0.5-1.7-0.9-1.7s-0.9,0.4-1.5,1.3c-2.7,3.4-5.2,8.8-7.5,13.9c-0.2,0.4-0.4,0.5-0.8,0.5
		c-0.5,0-1.8-0.2-1.5-1.1c0.6-1.8,3.4-9.6,4.6-13.9c0.1-0.5,0-0.9-0.4-0.9c-1.1,0-2.3,1.2-3.1,2.3c-0.4,0.1-0.8-0.2-0.7-0.7
		c1.4-2.4,3.1-4.2,5.2-4.2C414.8,337.9,414,340.9,413.6,342.1z"/>
	<path d="M429.5,341.6c0.2-0.5,0.2-0.8-0.1-0.8c-0.3,0-1.5,0.5-3.7,2.3c-0.4,0-0.7-0.4-0.6-0.8c2.4-2.8,5.8-4.4,7.3-4.4
		c0.3,0,0.5,0.3,0.7,0.4c0.3,0.3,0.3,0.7-0.3,1.9l-5.3,12.6c-0.2,0.4-0.2,1,0.1,1c0.8,0,3.1-1.5,4.6-3.3c0.4,0,0.7,0.4,0.7,0.8
		c-0.7,1.3-5.2,5.3-8.3,5.3c-0.2,0-0.5-0.1-0.7-0.4c-0.3-0.3-0.4-0.7-0.2-1.2L429.5,341.6z M434.7,330.5c0,1.4-1,2.7-2.3,2.7
		c-1.1,0-1.5-0.9-1.5-1.6c0-1,0.6-2.8,2.3-2.8C434.2,328.8,434.7,329.5,434.7,330.5z"/>
	<path d="M452.7,340.5c0,1.8-1.7,2.1-2.2,2.1c-0.4,0-0.8-0.3-0.9-0.8c-0.1-1.1-0.1-2.4-1.5-2.4c-1,0-2.3,0.9-3.7,3
		c-1.5,2.2-2.8,5.7-3,9.2c-0.1,2.2,0.8,2.9,1.9,2.9c1.5,0,3.1-1.1,4.8-2.7c0.4,0,0.7,0.3,0.6,0.8c-1.7,2.3-4.5,4.2-7.3,4.2
		c-1.7,0-3.3-1.3-3.3-4.7c0-2.9,1.7-7.9,5.6-11.4c1.9-1.7,3.8-2.6,5.7-2.6C451.6,337.9,452.7,339.1,452.7,340.5z"/>
	<path d="M471,336.9c0.8-0.4,1.9,0.1,2.2,0.7c-0.7,1.6-4.5,11.4-5.9,15.4c-0.3,0.8,0,1,0.3,1c0.8,0,2-0.8,4.6-3
		c0.3,0,0.6,0.2,0.6,0.6c-1.9,2.5-5,5-7.4,5c-1,0-1.3-0.8-1.3-1.2c0-0.3,0.1-0.7,0.4-1.7l1.5-4h-0.1c-3.1,3.9-7.6,6.9-9.7,6.9
		c-1.2,0-1.9-1.2-1.9-2.5c0-1,1-4.6,3.9-8.6c2.1-2.9,4-4.7,5.8-5.7c1.7-1,2.8-1.3,4-1.3c0.5,0,0.8,0.1,1.1,0.3
		c0.2,0.1,0.7,0.5,0.9,0.9L471,336.9z M463.3,341.9c-2.8,2.5-5.5,8.3-5.5,11.5c0,0.5,0.3,0.8,0.7,0.8c0.4,0,1.8-0.6,4.3-2.9
		c3.4-3.1,5.2-6.9,5.9-9.5c-0.3-0.8-1.1-1.6-2.2-1.6C465.3,340.2,464.6,340.7,463.3,341.9z"/>
	<path d="M480.5,353.1c-0.4,1-0.3,1.5,0.2,1.5c1,0,3.1-2.2,5.1-4.5c0.4,0,0.7,0.2,0.7,0.6c-1.1,2.2-3.9,5.9-7.6,5.9
		c-1.3,0-1.7-0.6-1.7-1.3c0-0.7,0.2-1.5,1-3.8l7-20.9c1.1-3.1,0.6-3.5,0-3.8l-0.8-0.4c-0.2-0.2-0.2-0.6,0-0.7
		c0.8-0.3,3.5-1.1,5.6-1.3l0.2,0.3c-0.6,1.6-1,2.8-2.6,7.6L480.5,353.1z"/>
	<path d="M514.8,363c-0.8,2.3-0.7,3.1,0.5,3.2l1.5,0.1c0.2,0.3,0.2,0.8-0.2,1c-1.6,0.1-6.8,0.8-9.5,1.3c-0.4-0.2-0.4-0.8-0.2-1
		l2-0.6c1.9-0.6,2.2-1.4,2.8-3.4l5.1-15.8h-0.1c-2,2.9-6.7,8.9-11,8.9c-1.9,0-2.7-1.7-2.7-3.3c0-1.5,0.4-3.9,2.2-7
		c1.7-2.9,4.2-5.5,6.8-6.9c1.9-1,3.3-1.4,5-1.4c1.2,0,2.1,1.1,2.4,2.4c0.6-1,1.6-2.6,2.4-3.6c0.4-0.1,1,0.1,1,0.5
		c-0.4,1.3-1.1,3.6-2.7,8.7L514.8,363z M512.6,341c-2.9,2.7-6.5,9.1-6.5,12.3c0,0.7,0.4,1.2,1,1.2c0.7,0,2.1-0.8,3.7-2.1
		c1.8-1.5,4.2-4.1,5.6-6.4c1.2-2.1,1.2-3.4,1.2-4.3s-0.5-2.5-1.6-2.5C515.3,339.2,514.1,339.7,512.6,341z"/>
	<path d="M530.7,352.1c-0.4,1.1-0.2,1.5,0.3,1.5c0.7,0,2.4-1.4,4.7-3.7c4-4,6.3-9.1,7.8-11.8c0.9-0.2,2,0.3,2.2,0.8
		c-0.4,1.2-3.3,8.4-5.2,13.7c-0.2,0.6-0.3,1.1,0.2,1.1c0.8,0,3.2-2.1,4.3-3.4c0.4-0.1,0.8,0.1,0.8,0.6c-1.1,2.1-5.4,5.6-7.7,5.6
		c-0.7,0-1.4-0.8-1.1-1.5l3-8.1h-0.1c-3.2,4-8.7,9.7-11.1,9.7c-1.8,0-2-1.8-1.3-3.8l4.1-10.7c0.3-0.8,0.4-1.3,0-1.3
		c-0.8,0-3.1,1.9-4.2,3.1c-0.4,0.1-0.8-0.3-0.8-0.7c1.1-1.8,5.6-5.3,7.6-5.3c0.6,0,1.6,0.6,1.3,1.3L530.7,352.1z"/>
	<path d="M566,336.9c0.8-0.4,1.9,0.1,2.2,0.7c-0.7,1.6-4.5,11.4-5.9,15.4c-0.3,0.8,0,1,0.3,1c0.8,0,2-0.8,4.6-3
		c0.3,0,0.6,0.2,0.6,0.6c-1.9,2.5-5,5-7.4,5c-1,0-1.3-0.8-1.3-1.2c0-0.3,0.1-0.7,0.4-1.7l1.5-4h-0.1c-3.1,3.9-7.6,6.9-9.7,6.9
		c-1.2,0-1.9-1.2-1.9-2.5c0-1,1-4.6,3.9-8.6c2.1-2.9,4-4.7,5.8-5.7c1.7-1,2.8-1.3,4-1.3c0.5,0,0.8,0.1,1.1,0.3
		c0.2,0.1,0.7,0.5,0.9,0.9L566,336.9z M558.4,341.9c-2.8,2.5-5.5,8.3-5.5,11.5c0,0.5,0.3,0.8,0.7,0.8s1.8-0.6,4.3-2.9
		c3.4-3.1,5.2-6.9,5.9-9.5c-0.3-0.8-1.1-1.6-2.2-1.6C560.4,340.2,559.7,340.7,558.4,341.9z"/>
	<path d="M579.5,342.1l-1.9,5.6h0.2c1.3-2.5,3.5-6,4.6-7.5c1-1.3,2.1-2.3,3.2-2.3c1.5,0,1.8,1.5,1.8,2.2s-0.4,1.9-0.9,2.7
		c-0.5,0.7-1.2,0.7-1.4-0.2c-0.2-1.1-0.5-1.7-0.9-1.7s-0.9,0.4-1.5,1.3c-2.7,3.4-5.2,8.8-7.5,13.9c-0.2,0.4-0.4,0.5-0.8,0.5
		c-0.5,0-1.8-0.2-1.5-1.1c0.6-1.8,3.4-9.6,4.6-13.9c0.1-0.5,0-0.9-0.4-0.9c-1.1,0-2.3,1.2-3.1,2.3c-0.4,0.1-0.8-0.2-0.7-0.7
		c1.4-2.4,3.1-4.2,5.2-4.2C580.7,337.9,579.9,340.9,579.5,342.1z"/>
	<path d="M597.5,340.6l-4,11.6c-0.3,0.8,0,1.1,0.3,1.1c0.7,0,3.6-2.3,5-4c0.4,0,0.7,0.3,0.6,0.8c-2.5,3.7-6.6,6.4-8.5,6.4
		c-0.6,0-1.2-0.7-1.2-1.2c0-0.6,0.2-1.2,0.6-2.5l4.2-12.2h-3.4c-0.1-0.4,0-1.1,0.5-1.2l3.5-0.6l2.5-4.4c0.4-0.3,1.3-0.2,1.7,0.3
		L598,339h4.8c0.3,0.4,0,1.3-0.5,1.6H597.5z"/>
	<path d="M618.8,340.6c0,3.4-4.4,5.6-10.7,7.3c-0.3,0.8-0.6,2.2-0.6,3.9c0,1.5,0.9,2.5,2.1,2.5c1.6,0,2.7-0.9,4.6-2.6
		c0.4,0,0.7,0.4,0.6,0.8c-2.7,3.3-5.2,4-7.1,4c-2.7,0-3.6-2.5-3.6-4.6c0-2.8,1.8-8.2,6.6-11.9c2.3-1.8,4-2.1,5.3-2.1
		C617.8,337.9,618.8,339.4,618.8,340.6z M611.8,341.4c-1.7,1.9-2.7,3.9-3.3,5.2c2.9-0.9,4.3-1.7,5.9-3.3c1.4-1.3,1.7-2.6,1.7-3
		s-0.2-1-1-1C614.5,339.3,613.3,339.7,611.8,341.4z"/>
	<path d="M629,342.1l-1.9,5.6h0.2c1.3-2.5,3.5-6,4.6-7.5c1-1.3,2.1-2.3,3.2-2.3c1.5,0,1.8,1.5,1.8,2.2s-0.4,1.9-0.9,2.7
		c-0.5,0.7-1.2,0.7-1.4-0.2c-0.2-1.1-0.5-1.7-0.9-1.7s-0.9,0.4-1.5,1.3c-2.7,3.4-5.2,8.8-7.5,13.9c-0.2,0.4-0.4,0.5-0.8,0.5
		c-0.5,0-1.8-0.2-1.5-1.1c0.6-1.8,3.4-9.6,4.6-13.9c0.1-0.5,0-0.9-0.4-0.9c-1.1,0-2.3,1.2-3.1,2.3c-0.4,0.1-0.8-0.2-0.7-0.7
		c1.4-2.4,3.1-4.2,5.2-4.2C630.2,337.9,629.4,340.9,629,342.1z"/>
	<path d="M660.3,340.6l-4,11.6c-0.3,0.8,0,1.1,0.3,1.1c0.7,0,3.6-2.3,5-4c0.4,0,0.7,0.3,0.6,0.8c-2.5,3.7-6.6,6.4-8.5,6.4
		c-0.6,0-1.2-0.7-1.2-1.2c0-0.6,0.2-1.2,0.6-2.5l4.2-12.2h-3.4c-0.1-0.4,0-1.1,0.5-1.2l3.5-0.6l2.5-4.4c0.4-0.3,1.3-0.2,1.7,0.3
		l-1.3,4.3h4.8c0.3,0.4,0,1.3-0.5,1.6L660.3,340.6L660.3,340.6z"/>
	<path d="M682.5,343.5c-0.1,2.4-1.4,6.7-4.7,10c-2.7,2.8-5.1,3.1-6.3,3.1c-2.8,0-4.7-2.1-4.4-5.9c0.2-2.7,1.8-7,4.8-9.9
		c2.3-2.2,4.3-2.9,6.1-2.9C681.1,337.9,682.7,340.2,682.5,343.5z M674.4,341.4c-2.6,3.4-4.3,8.7-4.4,11.1c-0.1,1.5,0.5,2.8,1.8,2.8
		c1,0,2.1-0.4,3.5-2.3c1.9-2.6,4-8.4,4.1-10.8c0-1.4-0.2-2.9-1.8-2.9C676.8,339.2,675.7,339.6,674.4,341.4z"/>
	<path d="M691.7,352.1c-0.4,1.1-0.2,1.5,0.3,1.5c0.7,0,2.4-1.4,4.7-3.7c4-4,6.3-9.1,7.8-11.8c0.9-0.2,2,0.3,2.2,0.8
		c-0.4,1.2-3.3,8.4-5.2,13.7c-0.2,0.6-0.3,1.1,0.2,1.1c0.8,0,3.2-2.1,4.3-3.4c0.4-0.1,0.8,0.1,0.8,0.6c-1.1,2.1-5.4,5.6-7.7,5.6
		c-0.7,0-1.4-0.8-1.1-1.5l3-8.1h-0.1c-3.2,4-8.7,9.7-11.1,9.7c-1.8,0-2-1.8-1.3-3.8l4.1-10.7c0.3-0.8,0.4-1.3,0-1.3
		c-0.8,0-3.1,1.9-4.2,3.1c-0.4,0.1-0.8-0.3-0.8-0.7c1.1-1.8,5.6-5.3,7.6-5.3c0.6,0,1.6,0.6,1.3,1.3L691.7,352.1z"/>
	<path d="M718.6,342.1l-1.9,5.6h0.2c1.3-2.5,3.5-6,4.6-7.5c1-1.3,2.1-2.3,3.2-2.3c1.5,0,1.8,1.5,1.8,2.2s-0.4,1.9-0.9,2.7
		c-0.5,0.7-1.2,0.7-1.4-0.2c-0.2-1.1-0.5-1.7-0.9-1.7s-0.9,0.4-1.5,1.3c-2.7,3.4-5.2,8.8-7.5,13.9c-0.2,0.4-0.4,0.5-0.8,0.5
		c-0.5,0-1.8-0.2-1.5-1.1c0.6-1.8,3.4-9.6,4.6-13.9c0.1-0.5,0-0.9-0.4-0.9c-1.1,0-2.3,1.2-3.1,2.3c-0.4,0.1-0.8-0.2-0.7-0.7
		c1.4-2.4,3.1-4.2,5.2-4.2C719.8,337.9,719,340.9,718.6,342.1z"/>
	<path d="M734.5,341.6c0.2-0.5,0.2-0.8-0.1-0.8s-1.5,0.5-3.7,2.3c-0.4,0-0.7-0.4-0.6-0.8c2.4-2.8,5.8-4.4,7.3-4.4
		c0.3,0,0.5,0.3,0.7,0.4c0.3,0.3,0.3,0.7-0.3,1.9l-5.3,12.6c-0.2,0.4-0.2,1,0.1,1c0.8,0,3.1-1.5,4.6-3.3c0.4,0,0.7,0.4,0.7,0.8
		c-0.7,1.3-5.2,5.3-8.3,5.3c-0.2,0-0.5-0.1-0.7-0.4c-0.3-0.3-0.4-0.7-0.2-1.2L734.5,341.6z M739.7,330.5c0,1.4-1,2.7-2.3,2.7
		c-1.1,0-1.5-0.9-1.5-1.6c0-1,0.6-2.8,2.3-2.8C739.2,328.8,739.7,329.5,739.7,330.5z"/>
	<path d="M753.6,340.4c0,0.7-0.4,1.2-0.8,1.4c-0.3,0.1-0.6,0-0.8-0.4c-0.8-0.8-1.3-1.4-2.7-1.4c-1.3,0-1.8,1.1-1.8,1.8
		c0,0.9,0.2,1.9,1.5,4c1.1,1.9,1.8,3,1.7,4.9c0,1.2-0.7,2.8-2.3,4.2c-1.1,1-2.8,1.6-4.5,1.6s-2.7-1.3-2.7-2.3c0-0.4,0.2-0.9,0.7-1.5
		c0.4-0.3,0.8-0.3,1.2,0c0.6,0.7,1.9,1.8,3.1,1.8c1.1,0,2.1-1.1,2.1-2.5c0-0.8-0.5-2.1-1.6-3.9c-1.1-1.9-1.5-3.4-1.5-4.1
		c0-1.7,0.8-3,2.7-4.6c1.3-1.1,2.7-1.5,3.3-1.5C752.6,337.9,753.6,339.3,753.6,340.4z"/>
	<path d="M764.9,340.6l-4,11.6c-0.3,0.8,0,1.1,0.3,1.1c0.7,0,3.6-2.3,5-4c0.4,0,0.7,0.3,0.6,0.8c-2.5,3.7-6.6,6.4-8.5,6.4
		c-0.6,0-1.2-0.7-1.2-1.2c0-0.6,0.2-1.2,0.6-2.5l4.2-12.2h-3.4c-0.1-0.4,0-1.1,0.5-1.2l3.5-0.6l2.5-4.4c0.4-0.3,1.3-0.2,1.7,0.3
		l-1.3,4.3h4.8c0.3,0.4,0,1.3-0.5,1.6L764.9,340.6L764.9,340.6z"/>
	<path d="M790.8,341.6c0.2-0.5,0.2-0.8-0.1-0.8s-1.5,0.5-3.7,2.3c-0.4,0-0.7-0.4-0.6-0.8c2.4-2.8,5.8-4.4,7.3-4.4
		c0.3,0,0.5,0.3,0.7,0.4c0.3,0.3,0.3,0.7-0.3,1.9l-5.3,12.6c-0.2,0.4-0.2,1,0.1,1c0.8,0,3.1-1.5,4.6-3.3c0.4,0,0.7,0.4,0.7,0.8
		c-0.7,1.3-5.2,5.3-8.3,5.3c-0.2,0-0.5-0.1-0.7-0.4c-0.3-0.3-0.4-0.7-0.2-1.2L790.8,341.6z M796,330.5c0,1.4-1,2.7-2.3,2.7
		c-1.1,0-1.5-0.9-1.5-1.6c0-1,0.6-2.8,2.3-2.8C795.6,328.8,796,329.5,796,330.5z"/>
	<path d="M805.2,347.5l0.1,0.1c3.1-4.8,7.5-9.6,10.8-9.6c1.7,0,2.5,0.9,2.5,2.4c0,0.7-0.4,2.1-0.7,3.1c-0.8,2.2-4,9.4-4.1,9.8
		c-0.2,0.4-0.2,0.8,0.1,0.8c0.8,0,2.9-1.5,4.2-3c0.6-0.1,0.7,0.3,0.7,0.6c-1.7,2.8-5.2,5-7.6,5c-0.4,0-1.1-0.6-1.1-1.1
		c0-0.4,0.1-0.7,1.1-2.9c0.9-2.2,2.6-6.5,3.6-8.7c0.4-0.8,0.9-2.3,0.9-3.2c0-0.5,0-1.1-0.7-1.1c-1.1,0-3.7,2.2-6.1,5.3
		c-2.3,2.9-4.2,6.4-6.8,11.2c-0.2,0.4-0.4,0.5-0.8,0.5c-0.5,0-1.7-0.1-1.3-1.1c0.2-0.6,4.9-13.3,5.1-13.9c0.2-0.6,0.2-1-0.1-1
		c-1,0-2.6,0.9-4,2.2c-0.4,0-0.6-0.3-0.5-0.7c1.7-2.3,4.4-4.1,6.6-4.1c1.1,0,1.5,0.8,1.1,1.8L805.2,347.5z"/>
	<path d="M831.9,340.2c-0.3,0.8-0.6,2.2-1.1,4.1c-1.3,5-2.5,9.2-3.9,14.1c-1.1,4-2.6,6.2-3.5,7.1c-0.7,0.6-2.7,2.4-5.3,2.4
		c-2.4,0-3.2-1.5-3.2-2.2c0-0.9,0.5-1.6,1-2c0.4-0.3,0.8-0.1,1,0.2c1.1,1.1,2.4,1.8,3.4,1.8c0.9,0,1.8-0.3,2.8-3.7
		c2-7,3.6-14.6,5.7-21.8H825c-0.4-0.4-0.3-1.2,0.3-1.6h3.8c1.1-4,2.3-7.4,5-10.5c2.2-2.6,4.5-3.7,7.1-3.7c1.6,0,3.4,1.1,3.4,2.9
		c0,1.1-1.2,2.5-1.9,2.5c-0.4,0-0.6-0.4-0.6-0.7c-0.1-2.4-1.4-3.2-2.5-3.2c-1,0-2.2,0.9-3.2,2.4c-2,3-2.9,6.1-4.1,10.3h5.5
		c0.3,0.5,0.2,1.1-0.4,1.6L831.9,340.2L831.9,340.2z"/>
	<path d="M853,343.5c-0.1,2.4-1.4,6.7-4.7,10c-2.7,2.8-5.1,3.1-6.3,3.1c-2.8,0-4.7-2.1-4.4-5.9c0.2-2.7,1.8-7,4.8-9.9
		c2.3-2.2,4.3-2.9,6.1-2.9C851.6,337.9,853.2,340.2,853,343.5z M844.9,341.4c-2.6,3.4-4.3,8.7-4.4,11.1c-0.1,1.5,0.5,2.8,1.8,2.8
		c1,0,2.1-0.4,3.5-2.3c1.9-2.6,4-8.4,4.1-10.8c0-1.4-0.2-2.9-1.8-2.9C847.3,339.2,846.2,339.6,844.9,341.4z"/>
	<path d="M865,342.1l-1.9,5.6h0.2c1.3-2.5,3.5-6,4.6-7.5c1-1.3,2.1-2.3,3.2-2.3c1.5,0,1.8,1.5,1.8,2.2s-0.4,1.9-0.9,2.7
		c-0.5,0.7-1.2,0.7-1.4-0.2c-0.2-1.1-0.5-1.7-0.9-1.7s-0.9,0.4-1.5,1.3c-2.7,3.4-5.2,8.8-7.5,13.9c-0.2,0.4-0.4,0.5-0.8,0.5
		c-0.5,0-1.8-0.2-1.5-1.1c0.6-1.8,3.4-9.6,4.6-13.9c0.1-0.5,0-0.9-0.4-0.9c-1.1,0-2.3,1.2-3.1,2.3c-0.4,0.1-0.8-0.2-0.7-0.7
		c1.4-2.4,3.1-4.2,5.2-4.2C866.2,337.9,865.4,340.9,865,342.1z"/>
	<path d="M892.8,343.7l-1.7,4.1l0.1,0.1c4.2-6.8,7.6-9.9,10.5-9.9c1.7,0,2.5,0.9,2.5,2.4c0,0.7-0.3,2.1-0.7,3.1
		c-0.8,2.2-4,9.4-4.1,9.8c-0.2,0.4-0.2,0.8,0.1,0.8c0.8,0,2.9-1.5,4.2-3c0.6-0.1,0.7,0.3,0.7,0.6c-1.7,2.8-5.2,5-7.6,5
		c-0.4,0-1.1-0.6-1.1-1.1c0-0.4,0.1-0.7,1.1-2.9c0.9-2.2,2.7-6.5,3.6-8.7c0.3-0.8,0.9-2.3,0.9-3.2c0-0.5,0-1.1-0.7-1.1
		c-1.3,0-3.4,2.3-5.8,5.3c-2.3,2.8-4.2,6.3-6.9,11.2c-0.2,0.4-0.4,0.5-0.8,0.5c-0.5,0-1.7-0.1-1.3-1.1l4.4-11.6
		c0.2-0.5,1.9-4.3,0.4-4.3c-1.2,0-3.7,2.3-6.1,5.3c-2.3,2.9-4.1,6.3-6.6,11.2c-0.2,0.4-0.4,0.5-0.8,0.5c-0.5,0-1.7-0.1-1.3-1.1
		c0.1-0.4,4.9-13.3,5-13.9c0.2-0.8,0.2-1.2-0.3-1.2c-1.5,0-3,1.3-3.9,2.4c-0.4,0-0.7-0.3-0.6-0.7c1.1-2.1,3.4-4.1,6.8-4.1
		c1,0,1.5,0.8,1.1,1.8l-3.1,8l0.1,0.1c3.2-5.2,7.3-9.9,10.7-9.9C894.7,337.9,893.7,341.4,892.8,343.7z"/>
	<path d="M925.1,336.9c0.8-0.4,1.9,0.1,2.2,0.7c-0.7,1.6-4.5,11.4-5.9,15.4c-0.3,0.8,0,1,0.3,1c0.8,0,2-0.8,4.6-3
		c0.3,0,0.6,0.2,0.6,0.6c-1.9,2.5-5,5-7.4,5c-1,0-1.3-0.8-1.3-1.2c0-0.3,0.1-0.7,0.4-1.7l1.5-4H920c-3.1,3.9-7.6,6.9-9.7,6.9
		c-1.2,0-1.9-1.2-1.9-2.5c0-1,1-4.6,3.9-8.6c2.1-2.9,4-4.7,5.8-5.7c1.7-1,2.8-1.3,4-1.3c0.5,0,0.8,0.1,1.1,0.3
		c0.2,0.1,0.7,0.5,0.9,0.9L925.1,336.9z M917.4,341.9c-2.8,2.5-5.5,8.3-5.5,11.5c0,0.5,0.3,0.8,0.7,0.8s1.8-0.6,4.3-2.9
		c3.4-3.1,5.2-6.9,5.9-9.5c-0.3-0.8-1.1-1.6-2.2-1.6C919.5,340.2,918.8,340.7,917.4,341.9z"/>
	<path d="M939.3,340.6l-4,11.6c-0.3,0.8,0,1.1,0.3,1.1c0.7,0,3.6-2.3,5-4c0.4,0,0.7,0.3,0.6,0.8c-2.5,3.7-6.6,6.4-8.5,6.4
		c-0.6,0-1.2-0.7-1.2-1.2c0-0.6,0.2-1.2,0.6-2.5l4.2-12.2h-3.4c-0.1-0.4,0-1.1,0.5-1.2l3.5-0.6l2.5-4.4c0.4-0.3,1.3-0.2,1.7,0.3
		l-1.3,4.3h4.8c0.3,0.4,0,1.3-0.5,1.6L939.3,340.6L939.3,340.6z"/>
	<path d="M951.9,341.6c0.2-0.5,0.2-0.8-0.1-0.8s-1.5,0.5-3.7,2.3c-0.4,0-0.7-0.4-0.6-0.8c2.4-2.8,5.8-4.4,7.3-4.4
		c0.3,0,0.5,0.3,0.7,0.4c0.3,0.3,0.3,0.7-0.3,1.9l-5.3,12.6c-0.2,0.4-0.2,1,0.1,1c0.8,0,3.1-1.5,4.6-3.3c0.4,0,0.7,0.4,0.7,0.8
		c-0.7,1.3-5.2,5.3-8.3,5.3c-0.2,0-0.5-0.1-0.7-0.4c-0.3-0.3-0.4-0.7-0.2-1.2L951.9,341.6z M957.1,330.5c0,1.4-1,2.7-2.3,2.7
		c-1.1,0-1.5-0.9-1.5-1.6c0-1,0.6-2.8,2.3-2.8C956.6,328.8,957.1,329.5,957.1,330.5z"/>
	<path d="M976,343.5c-0.1,2.4-1.4,6.7-4.7,10c-2.7,2.8-5.1,3.1-6.3,3.1c-2.8,0-4.7-2.1-4.4-5.9c0.2-2.7,1.8-7,4.8-9.9
		c2.3-2.2,4.3-2.9,6.1-2.9C974.6,337.9,976.1,340.2,976,343.5z M967.9,341.4c-2.6,3.4-4.3,8.7-4.4,11.1c-0.1,1.5,0.5,2.8,1.8,2.8
		c1,0,2.1-0.4,3.5-2.3c1.9-2.6,4-8.4,4.1-10.8c0-1.4-0.2-2.9-1.8-2.9C970.2,339.2,969.2,339.6,967.9,341.4z"/>
	<path d="M986.4,347.5l0.1,0.1c3.1-4.8,7.5-9.6,10.8-9.6c1.7,0,2.5,0.9,2.5,2.4c0,0.7-0.4,2.1-0.7,3.1c-0.8,2.2-4,9.4-4.1,9.8
		c-0.2,0.4-0.2,0.8,0.1,0.8c0.8,0,2.9-1.5,4.2-3c0.6-0.1,0.7,0.3,0.7,0.6c-1.7,2.8-5.2,5-7.6,5c-0.4,0-1.1-0.6-1.1-1.1
		c0-0.4,0.1-0.7,1.1-2.9c0.9-2.2,2.6-6.5,3.6-8.7c0.4-0.8,0.9-2.3,0.9-3.2c0-0.5,0-1.1-0.7-1.1c-1.1,0-3.7,2.2-6.1,5.3
		c-2.3,2.9-4.2,6.4-6.8,11.2c-0.2,0.4-0.4,0.5-0.8,0.5c-0.5,0-1.7-0.1-1.3-1.1c0.2-0.6,4.9-13.3,5.1-13.9c0.2-0.6,0.2-1-0.1-1
		c-1,0-2.6,0.9-4,2.2c-0.4,0-0.6-0.3-0.5-0.7c1.7-2.3,4.4-4.1,6.6-4.1c1.1,0,1.5,0.8,1.1,1.8L986.4,347.5z"/>
</g>
</svg>
